<!--?xml version="1.0" standalone="no"?--><svg version="1.0" xmlns="http://www.w3.org/2000/svg" width="300.000000pt" height="300.000000pt" viewBox="0 0 300.000000 300.000000" preserveAspectRatio="xMidYMid meet">
<metadata>
  <rdf:rdf xmlns:rdf="http://www.w3.org/1999/02/22-rdf-syntax-ns#" xmlns:rdfs="http://www.w3.org/2000/01/rdf-schema#" xmlns:dc="http://purl.org/dc/elements/1.1/">
    <rdf:description dc:title="herringbone yellow" dc:publisher="Hiox" dc:date="2015-03-30" dc:format="image/svg+xml" dc:language="en">
      <dc:creator>
        <rdf:bag>
          <rdf:li>svgimages.com</rdf:li>
        </rdf:bag>
      </dc:creator>
    </rdf:description>
  </rdf:rdf>
</metadata>
<g transform="translate(0.000000,300.000000) scale(0.100000,-0.100000)" fill="#FBBC39" stroke="none">
<path d="M165 2860 c-77 -77 -145 -140 -152 -140 -7 0 -13 -12 -13 -27 0 -25
15 -13 140 112 l140 140 135 -135 c75 -74 134 -140 133 -146 -6 -22 -527 -546
-537 -539 -7 4 -11 -4 -11 -22 1 -25 14 -15 140 115 77 78 143 142 148 142 10
0 272 -266 272 -276 0 -4 -84 -94 -188 -202 -103 -107 -222 -232 -265 -278
-50 -53 -83 -81 -93 -77 -10 4 -14 -3 -14 -23 0 -27 12 -17 140 111 77 77 145
139 152 137 7 -2 72 -63 145 -135 l132 -132 -272 -279 c-175 -179 -277 -277
-285 -272 -8 5 -12 -3 -12 -26 0 -31 5 -27 144 117 l145 150 140 -145 140
-145 -63 -65 c-277 -288 -472 -480 -488 -480 -14 0 -18 -8 -18 -32 0 -32 5
-29 144 112 80 79 148 146 153 147 4 2 69 -58 143 -132 l134 -134 -89 -92
c-50 -51 -117 -118 -150 -151 -35 -34 -54 -58 -44 -58 8 0 79 64 157 142 l142
143 142 -142 c82 -82 151 -143 162 -143 15 0 16 3 6 15 -7 9 -11 17 -9 20 2 2
125 126 274 275 l269 271 135 -133 c75 -73 137 -134 140 -136 3 -1 -61 -69
-142 -150 -81 -81 -147 -151 -147 -155 0 -25 43 10 164 133 75 77 140 140 144
140 4 -1 70 -63 147 -140 102 -102 147 -140 164 -140 23 0 24 1 6 20 -17 19
-11 26 251 295 147 151 270 275 273 275 3 0 69 -61 146 -134 122 -117 138
-136 125 -148 -9 -7 -81 -79 -160 -160 l-144 -148 38 0 c31 0 36 3 28 13 -9
10 20 45 126 150 l138 138 67 -68 c51 -52 67 -63 67 -48 0 12 -76 96 -206 226
l-205 205 131 137 c73 75 137 137 143 137 6 0 40 -28 74 -62 49 -48 63 -58 63
-43 0 13 -76 96 -205 225 l-205 205 132 132 c73 73 137 133 143 133 5 0 38
-28 72 -62 35 -34 63 -56 63 -48 0 8 -93 109 -206 223 l-205 207 30 38 c16 20
77 84 135 142 l106 105 70 -70 c38 -38 70 -63 70 -55 0 9 -94 110 -210 225
l-210 210 137 137 c76 76 140 138 143 138 3 0 36 -30 73 -66 50 -49 67 -61 67
-47 0 19 -417 443 -436 443 -5 0 -70 -61 -145 -136 l-136 -135 -131 136 c-100
103 -137 136 -153 133 -17 -2 6 -28 120 -137 78 -73 141 -139 141 -145 0 -6
-61 -72 -135 -146 l-135 -135 -274 274 c-151 151 -273 278 -270 283 3 4 -2 8
-10 8 -8 0 -19 -6 -23 -14 -12 -22 -241 -256 -250 -256 -5 0 -71 61 -148 135
-77 74 -148 135 -158 135 -10 0 41 -56 128 -141 80 -78 145 -145 145 -148 0
-12 -262 -282 -271 -279 -7 3 -89 81 -421 407 -71 68 -128 127 -128 131 0 3 5
11 12 18 9 9 9 12 -3 12 -8 0 -77 -63 -154 -140z m2400 -440 l-275 -275 -137
138 -138 137 275 275 275 275 137 -137 138 -138 -275 -275z m-996 399 c69 -72
127 -134 129 -137 1 -4 -119 -129 -268 -277 l-270 -270 -137 138 -138 137 270
270 c148 148 274 270 279 270 4 0 65 -59 135 -131z m-713 -426 c151 -147 273
-272 272 -279 -2 -7 -61 -71 -131 -143 -88 -91 -132 -129 -141 -124 -8 5 -134
126 -281 271 l-267 263 63 67 c131 138 203 212 207 212 2 0 127 -120 278 -267z
m1148 1 c143 -141 261 -262 261 -269 0 -6 -59 -73 -131 -148 l-130 -135 -275
268 -274 269 135 135 c74 75 139 136 143 136 5 0 127 -115 271 -256z m694
-158 l137 -134 -145 -149 c-80 -81 -202 -206 -272 -277 l-126 -130 -140 134
-141 134 187 195 c308 323 345 361 354 361 5 0 71 -60 146 -134z m-1128 -13
l131 -137 -268 -268 c-147 -147 -272 -268 -278 -268 -13 0 -265 252 -265 265
0 11 531 545 541 545 4 0 66 -62 139 -137z m465 -465 c104 -103 201 -196 214
-208 l25 -21 -90 -92 c-50 -51 -111 -114 -136 -142 l-46 -49 -274 269 c-150
149 -273 273 -273 276 0 3 59 67 130 142 l130 136 65 -62 c35 -34 150 -146
255 -249z m-1273 125 c95 -92 219 -213 276 -268 l102 -100 -134 -140 -134
-140 -78 75 c-396 378 -484 464 -482 471 5 14 260 269 268 269 5 0 87 -75 182
-167z m1937 -234 c72 -72 131 -135 129 -139 -2 -4 -122 -130 -268 -279 l-265
-271 -133 133 c-73 72 -131 138 -130 144 3 15 516 543 527 543 4 0 67 -59 140
-131z m-1129 -13 l131 -129 -113 -116 c-329 -338 -423 -431 -430 -429 -17 7
-268 251 -268 261 0 14 532 548 542 545 4 -2 66 -61 138 -132z m430 -426 l275
-269 -135 -136 c-74 -74 -139 -135 -145 -135 -6 0 -132 121 -280 270 l-270
270 135 135 c74 74 137 135 140 135 3 -1 129 -122 280 -270z m-1244 88 c93
-90 218 -209 278 -266 l109 -102 -89 -93 c-50 -50 -105 -109 -124 -129 -18
-21 -41 -40 -52 -43 -14 -5 -54 27 -165 132 -213 199 -397 377 -401 386 -5 9
249 276 263 277 6 0 87 -73 181 -162z m1951 -240 c73 -73 133 -137 133 -143 0
-6 -121 -132 -270 -280 l-270 -270 -140 140 -140 140 272 272 c150 150 275
273 278 273 3 0 64 -60 137 -132z m-1138 -12 l134 -135 -267 -275 c-148 -152
-271 -276 -275 -276 -10 0 -271 264 -271 275 0 9 530 545 540 545 3 0 66 -60
139 -134z m442 -439 l273 -267 -30 -32 c-16 -17 -76 -80 -134 -140 l-105 -108
-65 62 c-36 34 -161 156 -278 270 l-213 209 133 139 c73 76 136 138 139 137 4
-1 129 -122 280 -270z m-1164 21 c286 -282 294 -291 291 -300 -7 -17 -251
-268 -261 -268 -7 0 -136 121 -287 269 l-275 269 135 136 c74 75 138 136 142
136 5 0 119 -109 255 -242z" id="node1" class="node" stroke-width="20"></path>
</g>
<g transform="translate(0.000000,300.000000) scale(0.100000,-0.100000)" fill="#EE41D4" stroke="none">




































</g>
</svg>