<?xml version="1.0" standalone="no"?>
<!DOCTYPE svg PUBLIC "-//W3C//DTD SVG 20010904//EN"
 "http://www.w3.org/TR/2001/REC-SVG-20010904/DTD/svg10.dtd">
<svg version="1.0" xmlns="http://www.w3.org/2000/svg"
 width="1280.000000pt" height="1280.000000pt" viewBox="0 0 1280.000000 1280.000000"
 preserveAspectRatio="xMidYMid meet">
<g transform="translate(0.000000,1280.000000) scale(0.100000,-0.100000)"
fill="#000000" stroke="none">
<path d="M0 12758 l0 -42 40 39 c22 21 40 40 40 42 0 2 -18 3 -40 3 l-40 0 0
-42z"/>
<path d="M1238 12758 l42 -43 42 43 43 42 -85 0 -85 0 43 -42z"/>
<path d="M2518 12758 l42 -43 42 43 43 42 -85 0 -85 0 43 -42z"/>
<path d="M3798 12758 l42 -43 42 43 43 42 -85 0 -85 0 43 -42z"/>
<path d="M5078 12758 l42 -43 42 43 43 42 -85 0 -85 0 43 -42z"/>
<path d="M6358 12758 l42 -43 42 43 43 42 -85 0 -85 0 43 -42z"/>
<path d="M7638 12758 l42 -43 42 43 43 42 -85 0 -85 0 43 -42z"/>
<path d="M8918 12758 l42 -43 42 43 43 42 -85 0 -85 0 43 -42z"/>
<path d="M10198 12758 l42 -43 42 43 43 42 -85 0 -85 0 43 -42z"/>
<path d="M11478 12758 l42 -43 42 43 43 42 -85 0 -85 0 43 -42z"/>
<path d="M12755 12760 c21 -22 40 -40 42 -40 2 0 3 18 3 40 l0 40 -42 0 -42 0
39 -40z"/>
<path d="M587 12212 c-20 -21 -37 -45 -37 -53 0 -19 71 -89 91 -89 19 0 89 71
89 91 0 19 -71 89 -91 89 -8 0 -32 -17 -52 -38z"/>
<path d="M1867 12212 c-20 -21 -37 -45 -37 -53 0 -19 71 -89 91 -89 19 0 89
71 89 91 0 19 -71 89 -91 89 -8 0 -32 -17 -52 -38z"/>
<path d="M3147 12212 c-20 -21 -37 -45 -37 -53 0 -19 71 -89 91 -89 19 0 89
71 89 91 0 19 -71 89 -91 89 -8 0 -32 -17 -52 -38z"/>
<path d="M4427 12212 c-20 -21 -37 -45 -37 -53 0 -19 71 -89 91 -89 19 0 89
71 89 91 0 19 -71 89 -91 89 -8 0 -32 -17 -52 -38z"/>
<path d="M5707 12212 c-20 -21 -37 -45 -37 -53 0 -19 71 -89 91 -89 19 0 89
71 89 91 0 19 -71 89 -91 89 -8 0 -32 -17 -52 -38z"/>
<path d="M6987 12212 c-20 -21 -37 -45 -37 -53 0 -19 71 -89 91 -89 19 0 89
71 89 91 0 19 -71 89 -91 89 -8 0 -32 -17 -52 -38z"/>
<path d="M8267 12212 c-20 -21 -37 -45 -37 -53 0 -19 71 -89 91 -89 19 0 89
71 89 91 0 19 -71 89 -91 89 -8 0 -32 -17 -52 -38z"/>
<path d="M9547 12212 c-20 -21 -37 -45 -37 -53 0 -19 71 -89 91 -89 19 0 89
71 89 91 0 19 -71 89 -91 89 -8 0 -32 -17 -52 -38z"/>
<path d="M10827 12212 c-20 -21 -37 -45 -37 -53 0 -19 71 -89 91 -89 19 0 89
71 89 91 0 19 -71 89 -91 89 -8 0 -32 -17 -52 -38z"/>
<path d="M12107 12212 c-20 -21 -37 -45 -37 -53 0 -19 71 -89 91 -89 19 0 89
71 89 91 0 19 -71 89 -91 89 -8 0 -32 -17 -52 -38z"/>
<path d="M0 11520 c0 -123 1 -130 18 -121 24 13 112 108 112 121 0 13 -88 108
-112 121 -17 9 -18 2 -18 -121z"/>
<path d="M1208 11592 c-32 -33 -58 -65 -58 -72 0 -17 113 -130 130 -130 17 0
130 113 130 130 0 17 -113 130 -130 130 -7 0 -39 -26 -72 -58z"/>
<path d="M2488 11592 c-32 -33 -58 -65 -58 -72 0 -17 113 -130 130 -130 17 0
130 113 130 130 0 17 -113 130 -130 130 -7 0 -39 -26 -72 -58z"/>
<path d="M3768 11592 c-32 -33 -58 -65 -58 -72 0 -17 113 -130 130 -130 17 0
130 113 130 130 0 17 -113 130 -130 130 -7 0 -39 -26 -72 -58z"/>
<path d="M5048 11592 c-32 -33 -58 -65 -58 -72 0 -17 113 -130 130 -130 17 0
130 113 130 130 0 17 -113 130 -130 130 -7 0 -39 -26 -72 -58z"/>
<path d="M6328 11592 c-32 -33 -58 -65 -58 -72 0 -17 113 -130 130 -130 17 0
130 113 130 130 0 17 -113 130 -130 130 -7 0 -39 -26 -72 -58z"/>
<path d="M7608 11592 c-32 -33 -58 -65 -58 -72 0 -17 113 -130 130 -130 17 0
130 113 130 130 0 17 -113 130 -130 130 -7 0 -39 -26 -72 -58z"/>
<path d="M8888 11592 c-32 -33 -58 -65 -58 -72 0 -17 113 -130 130 -130 17 0
130 113 130 130 0 17 -113 130 -130 130 -7 0 -39 -26 -72 -58z"/>
<path d="M10168 11592 c-32 -33 -58 -65 -58 -72 0 -17 113 -130 130 -130 7 0
39 26 72 58 32 33 58 65 58 72 0 7 -26 39 -58 72 -33 32 -65 58 -72 58 -7 0
-39 -26 -72 -58z"/>
<path d="M11448 11592 c-32 -33 -58 -65 -58 -72 0 -7 26 -39 58 -72 33 -32 65
-58 72 -58 7 0 39 26 72 58 32 33 58 65 58 72 0 7 -26 39 -58 72 -33 32 -65
58 -72 58 -7 0 -39 -26 -72 -58z"/>
<path d="M12733 11594 c-35 -33 -63 -67 -63 -74 0 -7 28 -41 63 -74 l62 -61 3
68 c2 37 2 97 0 135 l-3 67 -62 -61z"/>
<path d="M567 10952 c-31 -32 -57 -64 -57 -73 0 -19 111 -129 131 -129 19 0
129 111 129 131 0 19 -111 129 -131 129 -8 0 -40 -26 -72 -58z"/>
<path d="M1847 10952 c-31 -32 -57 -64 -57 -73 0 -19 111 -129 131 -129 19 0
129 111 129 131 0 19 -111 129 -131 129 -8 0 -40 -26 -72 -58z"/>
<path d="M3127 10952 c-31 -32 -57 -64 -57 -73 0 -19 111 -129 131 -129 19 0
129 111 129 131 0 19 -111 129 -131 129 -8 0 -40 -26 -72 -58z"/>
<path d="M4407 10952 c-31 -32 -57 -64 -57 -73 0 -19 111 -129 131 -129 19 0
129 111 129 131 0 19 -111 129 -131 129 -8 0 -40 -26 -72 -58z"/>
<path d="M5687 10952 c-31 -32 -57 -64 -57 -73 0 -19 111 -129 131 -129 19 0
129 111 129 131 0 19 -111 129 -131 129 -8 0 -40 -26 -72 -58z"/>
<path d="M6967 10952 c-31 -32 -57 -64 -57 -73 0 -19 111 -129 131 -129 19 0
129 111 129 131 0 19 -111 129 -131 129 -8 0 -40 -26 -72 -58z"/>
<path d="M8247 10952 c-31 -32 -57 -64 -57 -73 0 -19 111 -129 131 -129 19 0
129 111 129 131 0 19 -111 129 -131 129 -8 0 -40 -26 -72 -58z"/>
<path d="M9527 10952 c-31 -32 -57 -64 -57 -73 0 -19 111 -129 131 -129 19 0
129 111 129 131 0 19 -111 129 -131 129 -8 0 -40 -26 -72 -58z"/>
<path d="M10807 10952 c-31 -32 -57 -64 -57 -73 0 -19 111 -129 131 -129 19 0
129 111 129 131 0 19 -111 129 -131 129 -8 0 -40 -26 -72 -58z"/>
<path d="M12087 10952 c-31 -32 -57 -64 -57 -73 0 -19 111 -129 131 -129 19 0
129 111 129 131 0 19 -111 129 -131 129 -8 0 -40 -26 -72 -58z"/>
<path d="M0 10240 c0 -124 3 -170 12 -170 6 0 44 33 85 73 49 50 73 81 73 97
0 16 -24 47 -73 97 -41 40 -79 73 -85 73 -9 0 -12 -46 -12 -170z"/>
<path d="M1183 10337 c-49 -50 -73 -81 -73 -97 0 -33 137 -170 170 -170 33 0
170 137 170 170 0 33 -137 170 -170 170 -16 0 -47 -24 -97 -73z"/>
<path d="M2463 10337 c-49 -50 -73 -81 -73 -97 0 -33 137 -170 170 -170 33 0
170 137 170 170 0 33 -137 170 -170 170 -16 0 -47 -24 -97 -73z"/>
<path d="M3743 10337 c-49 -50 -73 -81 -73 -97 0 -33 137 -170 170 -170 33 0
170 137 170 170 0 33 -137 170 -170 170 -16 0 -47 -24 -97 -73z"/>
<path d="M5023 10337 c-49 -50 -73 -81 -73 -97 0 -33 137 -170 170 -170 16 0
47 24 97 73 49 50 73 81 73 97 0 33 -137 170 -170 170 -16 0 -47 -24 -97 -73z"/>
<path d="M6303 10337 c-49 -50 -73 -81 -73 -97 0 -16 24 -47 73 -97 50 -49 81
-73 97 -73 16 0 47 24 97 73 49 50 73 81 73 97 0 33 -137 170 -170 170 -16 0
-47 -24 -97 -73z"/>
<path d="M7583 10337 c-49 -50 -73 -81 -73 -97 0 -16 24 -47 73 -97 50 -49 81
-73 97 -73 16 0 47 24 97 73 49 50 73 81 73 97 0 33 -137 170 -170 170 -16 0
-47 -24 -97 -73z"/>
<path d="M8863 10337 c-49 -50 -73 -81 -73 -97 0 -16 24 -47 73 -97 50 -49 81
-73 97 -73 16 0 47 24 97 73 49 50 73 81 73 97 0 33 -137 170 -170 170 -16 0
-47 -24 -97 -73z"/>
<path d="M10143 10337 c-49 -50 -73 -81 -73 -97 0 -16 24 -47 73 -97 50 -49
81 -73 97 -73 33 0 170 137 170 170 0 33 -137 170 -170 170 -16 0 -47 -24 -97
-73z"/>
<path d="M11423 10337 c-49 -50 -73 -81 -73 -97 0 -33 137 -170 170 -170 33 0
170 137 170 170 0 16 -24 47 -73 97 -50 49 -81 73 -97 73 -16 0 -47 -24 -97
-73z"/>
<path d="M12703 10337 c-49 -50 -73 -81 -73 -97 0 -16 24 -47 73 -97 41 -40
79 -73 85 -73 9 0 12 46 12 170 0 124 -3 170 -12 170 -6 0 -44 -33 -85 -73z"/>
<path d="M543 9697 c-46 -46 -83 -89 -83 -97 0 -18 162 -180 180 -180 18 0
180 162 180 180 0 18 -162 180 -180 180 -8 0 -51 -37 -97 -83z"/>
<path d="M1823 9697 c-46 -46 -83 -89 -83 -97 0 -18 162 -180 180 -180 18 0
180 162 180 180 0 18 -162 180 -180 180 -8 0 -51 -37 -97 -83z"/>
<path d="M3103 9697 c-46 -46 -83 -89 -83 -97 0 -18 162 -180 180 -180 18 0
180 162 180 180 0 18 -162 180 -180 180 -8 0 -51 -37 -97 -83z"/>
<path d="M4383 9697 c-46 -46 -83 -89 -83 -97 0 -18 162 -180 180 -180 18 0
180 162 180 180 0 18 -162 180 -180 180 -8 0 -51 -37 -97 -83z"/>
<path d="M5663 9697 c-46 -46 -83 -89 -83 -97 0 -8 37 -51 83 -97 46 -46 89
-83 97 -83 8 0 51 37 97 83 46 46 83 89 83 97 0 8 -37 51 -83 97 -46 46 -89
83 -97 83 -8 0 -51 -37 -97 -83z"/>
<path d="M6943 9697 c-46 -46 -83 -89 -83 -97 0 -8 37 -51 83 -97 46 -46 89
-83 97 -83 8 0 51 37 97 83 46 46 83 89 83 97 0 8 -37 51 -83 97 -46 46 -89
83 -97 83 -8 0 -51 -37 -97 -83z"/>
<path d="M8223 9697 c-46 -46 -83 -89 -83 -97 0 -8 37 -51 83 -97 46 -46 89
-83 97 -83 8 0 51 37 97 83 46 46 83 89 83 97 0 8 -37 51 -83 97 -46 46 -89
83 -97 83 -8 0 -51 -37 -97 -83z"/>
<path d="M9503 9697 c-46 -46 -83 -89 -83 -97 0 -8 37 -51 83 -97 46 -46 89
-83 97 -83 8 0 51 37 97 83 46 46 83 89 83 97 0 8 -37 51 -83 97 -46 46 -89
83 -97 83 -8 0 -51 -37 -97 -83z"/>
<path d="M10783 9697 c-46 -46 -83 -89 -83 -97 0 -8 37 -51 83 -97 46 -46 89
-83 97 -83 8 0 51 37 97 83 46 46 83 89 83 97 0 8 -37 51 -83 97 -46 46 -89
83 -97 83 -8 0 -51 -37 -97 -83z"/>
<path d="M12063 9697 c-46 -46 -83 -89 -83 -97 0 -8 37 -51 83 -97 46 -46 89
-83 97 -83 8 0 51 37 97 83 46 46 83 89 83 97 0 8 -37 51 -83 97 -46 46 -89
83 -97 83 -8 0 -51 -37 -97 -83z"/>
<path d="M0 8960 c0 -164 3 -220 12 -220 7 0 56 44 110 98 69 69 98 105 98
122 0 17 -29 53 -98 122 -54 54 -103 98 -110 98 -9 0 -12 -56 -12 -220z"/>
<path d="M1158 9082 c-69 -69 -98 -105 -98 -122 0 -34 186 -220 220 -220 34 0
220 186 220 220 0 34 -186 220 -220 220 -17 0 -53 -29 -122 -98z"/>
<path d="M2438 9082 c-69 -69 -98 -105 -98 -122 0 -17 29 -53 98 -122 69 -69
105 -98 122 -98 17 0 53 29 122 98 69 69 98 105 98 122 0 17 -29 53 -98 122
-69 69 -105 98 -122 98 -17 0 -53 -29 -122 -98z"/>
<path d="M3718 9082 c-69 -69 -98 -105 -98 -122 0 -17 29 -53 98 -122 69 -69
105 -98 122 -98 17 0 53 29 122 98 69 69 98 105 98 122 0 17 -29 53 -98 122
-69 69 -105 98 -122 98 -17 0 -53 -29 -122 -98z"/>
<path d="M4998 9082 c-69 -69 -98 -105 -98 -122 0 -17 29 -53 98 -122 69 -69
105 -98 122 -98 17 0 53 29 122 98 69 69 98 105 98 122 0 17 -29 53 -98 122
-69 69 -105 98 -122 98 -17 0 -53 -29 -122 -98z"/>
<path d="M6278 9082 c-69 -69 -98 -105 -98 -122 0 -17 29 -53 98 -122 69 -69
105 -98 122 -98 17 0 53 29 122 98 69 69 98 105 98 122 0 17 -29 53 -98 122
-69 69 -105 98 -122 98 -17 0 -53 -29 -122 -98z"/>
<path d="M7558 9082 c-69 -69 -98 -105 -98 -122 0 -17 29 -53 98 -122 69 -69
105 -98 122 -98 17 0 53 29 122 98 69 69 98 105 98 122 0 17 -29 53 -98 122
-69 69 -105 98 -122 98 -17 0 -53 -29 -122 -98z"/>
<path d="M8838 9082 c-69 -69 -98 -105 -98 -122 0 -17 29 -53 98 -122 69 -69
105 -98 122 -98 17 0 53 29 122 98 69 69 98 105 98 122 0 17 -29 53 -98 122
-69 69 -105 98 -122 98 -17 0 -53 -29 -122 -98z"/>
<path d="M10118 9082 c-69 -69 -98 -105 -98 -122 0 -17 29 -53 98 -122 69 -69
105 -98 122 -98 34 0 220 186 220 220 0 34 -186 220 -220 220 -17 0 -53 -29
-122 -98z"/>
<path d="M11398 9082 c-69 -69 -98 -105 -98 -122 0 -34 186 -220 220 -220 34
0 220 186 220 220 0 34 -186 220 -220 220 -17 0 -53 -29 -122 -98z"/>
<path d="M12678 9082 c-69 -69 -98 -105 -98 -122 0 -17 29 -53 98 -122 54 -54
103 -98 110 -98 9 0 12 56 12 220 0 164 -3 220 -12 220 -7 0 -56 -44 -110 -98z"/>
<path d="M519 8441 c-68 -67 -99 -105 -99 -121 0 -32 188 -220 220 -220 32 0
220 188 220 220 0 32 -188 220 -220 220 -16 0 -54 -31 -121 -99z"/>
<path d="M1799 8441 c-68 -67 -99 -105 -99 -121 0 -32 188 -220 220 -220 32 0
220 188 220 220 0 32 -188 220 -220 220 -16 0 -54 -31 -121 -99z"/>
<path d="M3079 8441 c-68 -67 -99 -105 -99 -121 0 -16 31 -54 99 -121 67 -68
105 -99 121 -99 16 0 54 31 121 99 68 67 99 105 99 121 0 32 -188 220 -220
220 -16 0 -54 -31 -121 -99z"/>
<path d="M4359 8441 c-68 -67 -99 -105 -99 -121 0 -16 31 -54 99 -121 67 -68
105 -99 121 -99 16 0 54 31 121 99 68 67 99 105 99 121 0 32 -188 220 -220
220 -16 0 -54 -31 -121 -99z"/>
<path d="M5639 8441 c-68 -67 -99 -105 -99 -121 0 -16 31 -54 99 -121 67 -68
105 -99 121 -99 16 0 54 31 121 99 68 67 99 105 99 121 0 16 -31 54 -99 121
-67 68 -105 99 -121 99 -16 0 -54 -31 -121 -99z"/>
<path d="M6919 8441 c-68 -67 -99 -105 -99 -121 0 -16 31 -54 99 -121 67 -68
105 -99 121 -99 16 0 54 31 121 99 68 67 99 105 99 121 0 16 -31 54 -99 121
-67 68 -105 99 -121 99 -16 0 -54 -31 -121 -99z"/>
<path d="M8199 8441 c-68 -67 -99 -105 -99 -121 0 -16 31 -54 99 -121 67 -68
105 -99 121 -99 16 0 54 31 121 99 68 67 99 105 99 121 0 16 -31 54 -99 121
-67 68 -105 99 -121 99 -16 0 -54 -31 -121 -99z"/>
<path d="M9479 8441 c-68 -67 -99 -105 -99 -121 0 -16 31 -54 99 -121 67 -68
105 -99 121 -99 16 0 54 31 121 99 68 67 99 105 99 121 0 16 -31 54 -99 121
-67 68 -105 99 -121 99 -16 0 -54 -31 -121 -99z"/>
<path d="M10759 8441 c-68 -67 -99 -105 -99 -121 0 -16 31 -54 99 -121 67 -68
105 -99 121 -99 16 0 54 31 121 99 68 67 99 105 99 121 0 16 -31 54 -99 121
-67 68 -105 99 -121 99 -16 0 -54 -31 -121 -99z"/>
<path d="M12039 8441 c-68 -67 -99 -105 -99 -121 0 -16 31 -54 99 -121 67 -68
105 -99 121 -99 16 0 54 31 121 99 68 67 99 105 99 121 0 16 -31 54 -99 121
-67 68 -105 99 -121 99 -16 0 -54 -31 -121 -99z"/>
<path d="M0 7679 l0 -270 23 12 c31 16 216 199 233 231 10 19 11 34 5 50 -11
27 -218 233 -243 241 -17 6 -18 -11 -18 -264z"/>
<path d="M1260 7943 c-24 -8 -231 -215 -241 -241 -13 -35 7 -65 118 -173 113
-112 133 -125 166 -108 31 16 216 199 233 231 21 40 8 61 -113 179 -105 104
-132 123 -163 112z"/>
<path d="M2540 7943 c-24 -8 -231 -215 -241 -241 -13 -35 7 -65 118 -173 113
-112 133 -125 166 -108 31 16 216 199 233 231 21 40 8 61 -113 179 -105 104
-132 123 -163 112z"/>
<path d="M3820 7943 c-24 -8 -231 -215 -241 -241 -13 -35 7 -65 118 -173 113
-112 133 -125 166 -108 31 16 216 199 233 231 21 40 8 61 -113 179 -105 104
-132 123 -163 112z"/>
<path d="M5100 7943 c-24 -8 -231 -215 -241 -241 -13 -35 7 -65 118 -173 113
-112 133 -125 166 -108 31 16 216 199 233 231 21 40 8 61 -113 179 -105 104
-132 123 -163 112z"/>
<path d="M6380 7943 c-24 -8 -231 -215 -241 -241 -13 -35 7 -65 118 -173 113
-112 133 -125 166 -108 31 16 216 199 233 231 21 40 8 61 -113 179 -105 104
-132 123 -163 112z"/>
<path d="M7660 7943 c-24 -8 -231 -215 -241 -241 -13 -35 7 -65 118 -173 113
-112 133 -125 166 -108 31 16 216 199 233 231 21 40 8 61 -113 179 -105 104
-132 123 -163 112z"/>
<path d="M8940 7943 c-24 -8 -231 -215 -241 -241 -13 -35 7 -65 118 -173 113
-112 133 -125 166 -108 31 16 216 199 233 231 21 40 8 61 -113 179 -105 104
-132 123 -163 112z"/>
<path d="M10220 7943 c-24 -8 -231 -215 -241 -241 -13 -35 7 -65 118 -173 113
-112 133 -125 166 -108 31 16 216 199 233 231 21 40 8 61 -113 179 -105 104
-132 123 -163 112z"/>
<path d="M11500 7943 c-24 -8 -231 -215 -241 -241 -13 -35 7 -65 118 -173 113
-112 133 -125 166 -108 31 16 216 199 233 231 21 40 8 61 -113 179 -105 104
-132 123 -163 112z"/>
<path d="M12780 7943 c-24 -8 -231 -216 -241 -241 -6 -16 -5 -31 5 -50 17 -32
202 -215 234 -231 l22 -12 0 271 c0 148 -1 270 -2 269 -2 0 -10 -3 -18 -6z"/>
<path d="M498 7182 c-85 -85 -118 -125 -118 -142 0 -34 226 -260 260 -260 34
0 260 226 260 260 0 34 -226 260 -260 260 -17 0 -57 -33 -142 -118z"/>
<path d="M1778 7182 c-85 -85 -118 -125 -118 -142 0 -34 226 -260 260 -260 34
0 260 226 260 260 0 34 -226 260 -260 260 -17 0 -57 -33 -142 -118z"/>
<path d="M3058 7182 c-85 -85 -118 -125 -118 -142 0 -34 226 -260 260 -260 34
0 260 226 260 260 0 17 -33 57 -118 142 -85 85 -125 118 -142 118 -17 0 -57
-33 -142 -118z"/>
<path d="M4338 7182 c-85 -85 -118 -125 -118 -142 0 -34 226 -260 260 -260 34
0 260 226 260 260 0 17 -33 57 -118 142 -85 85 -125 118 -142 118 -17 0 -57
-33 -142 -118z"/>
<path d="M5618 7182 c-85 -85 -118 -125 -118 -142 0 -17 33 -57 118 -142 85
-85 125 -118 142 -118 17 0 57 33 142 118 85 85 118 125 118 142 0 17 -33 57
-118 142 -85 85 -125 118 -142 118 -17 0 -57 -33 -142 -118z"/>
<path d="M6898 7182 c-85 -85 -118 -125 -118 -142 0 -17 33 -57 118 -142 85
-85 125 -118 142 -118 17 0 57 33 142 118 85 85 118 125 118 142 0 17 -33 57
-118 142 -85 85 -125 118 -142 118 -17 0 -57 -33 -142 -118z"/>
<path d="M8178 7182 c-85 -85 -118 -125 -118 -142 0 -17 33 -57 118 -142 85
-85 125 -118 142 -118 17 0 57 33 142 118 85 85 118 125 118 142 0 17 -33 57
-118 142 -85 85 -125 118 -142 118 -17 0 -57 -33 -142 -118z"/>
<path d="M9458 7182 c-85 -85 -118 -125 -118 -142 0 -17 33 -57 118 -142 85
-85 125 -118 142 -118 17 0 57 33 142 118 85 85 118 125 118 142 0 17 -33 57
-118 142 -85 85 -125 118 -142 118 -17 0 -57 -33 -142 -118z"/>
<path d="M10738 7182 c-85 -85 -118 -125 -118 -142 0 -34 226 -260 260 -260
34 0 260 226 260 260 0 34 -226 260 -260 260 -17 0 -57 -33 -142 -118z"/>
<path d="M12018 7182 c-85 -85 -118 -125 -118 -142 0 -34 226 -260 260 -260
34 0 260 226 260 260 0 34 -226 260 -260 260 -17 0 -57 -33 -142 -118z"/>
<path d="M0 6400 c0 -286 1 -310 17 -310 10 0 79 62 155 138 182 182 182 162
0 344 -76 76 -145 138 -155 138 -16 0 -17 -24 -17 -310z"/>
<path d="M1108 6572 c-124 -123 -138 -141 -138 -172 0 -31 14 -49 138 -172
123 -124 141 -138 172 -138 31 0 49 14 172 138 124 123 138 141 138 172 0 31
-14 49 -138 172 -123 124 -141 138 -172 138 -31 0 -49 -14 -172 -138z"/>
<path d="M2388 6572 c-124 -123 -138 -141 -138 -172 0 -31 14 -49 138 -172
123 -124 141 -138 172 -138 31 0 49 14 172 138 124 123 138 141 138 172 0 31
-14 49 -138 172 -123 124 -141 138 -172 138 -31 0 -49 -14 -172 -138z"/>
<path d="M3668 6572 c-124 -123 -138 -141 -138 -172 0 -31 14 -49 138 -172
123 -124 141 -138 172 -138 31 0 49 14 172 138 124 123 138 141 138 172 0 31
-14 49 -138 172 -123 124 -141 138 -172 138 -31 0 -49 -14 -172 -138z"/>
<path d="M4948 6572 c-124 -123 -138 -141 -138 -172 0 -31 14 -49 138 -172
123 -124 141 -138 172 -138 31 0 49 14 172 138 124 123 138 141 138 172 0 31
-14 49 -138 172 -123 124 -141 138 -172 138 -31 0 -49 -14 -172 -138z"/>
<path d="M6228 6572 c-124 -123 -138 -141 -138 -172 0 -31 14 -49 138 -172
123 -124 141 -138 172 -138 31 0 49 14 172 138 124 123 138 141 138 172 0 31
-14 49 -138 172 -123 124 -141 138 -172 138 -31 0 -49 -14 -172 -138z"/>
<path d="M7508 6572 c-124 -123 -138 -141 -138 -172 0 -31 14 -49 138 -172
123 -124 141 -138 172 -138 31 0 49 14 172 138 124 123 138 141 138 172 0 31
-14 49 -138 172 -123 124 -141 138 -172 138 -31 0 -49 -14 -172 -138z"/>
<path d="M8788 6572 c-124 -123 -138 -141 -138 -172 0 -31 14 -49 138 -172
123 -124 141 -138 172 -138 31 0 49 14 172 138 124 123 138 141 138 172 0 31
-14 49 -138 172 -123 124 -141 138 -172 138 -31 0 -49 -14 -172 -138z"/>
<path d="M10068 6572 c-124 -123 -138 -141 -138 -172 0 -31 14 -49 138 -172
123 -124 141 -138 172 -138 31 0 49 14 172 138 124 123 138 141 138 172 0 31
-14 49 -138 172 -123 124 -141 138 -172 138 -31 0 -49 -14 -172 -138z"/>
<path d="M11348 6572 c-124 -123 -138 -141 -138 -172 0 -31 14 -49 138 -172
123 -124 141 -138 172 -138 31 0 49 14 172 138 124 123 138 141 138 172 0 31
-14 49 -138 172 -123 124 -141 138 -172 138 -31 0 -49 -14 -172 -138z"/>
<path d="M12628 6572 c-124 -123 -138 -141 -138 -172 0 -31 14 -49 138 -172
76 -76 145 -138 155 -138 16 0 17 24 17 310 0 286 -1 310 -17 310 -10 0 -79
-62 -155 -138z"/>
<path d="M473 5926 c-175 -176 -175 -157 0 -333 176 -176 158 -176 334 0 118
118 133 137 133 167 0 30 -15 49 -133 167 -177 176 -159 176 -334 -1z"/>
<path d="M1753 5926 c-175 -176 -175 -157 0 -333 118 -118 137 -133 167 -133
30 0 49 15 167 133 118 118 133 137 133 167 0 30 -15 49 -133 167 -177 176
-159 176 -334 -1z"/>
<path d="M3033 5926 c-175 -176 -175 -157 0 -333 118 -118 137 -133 167 -133
30 0 49 15 167 133 176 176 176 158 0 334 -177 176 -159 176 -334 -1z"/>
<path d="M4313 5926 c-175 -176 -175 -157 0 -333 118 -118 137 -133 167 -133
30 0 49 15 167 133 176 176 176 158 0 334 -177 176 -159 176 -334 -1z"/>
<path d="M5593 5926 c-175 -176 -175 -157 0 -333 118 -118 137 -133 167 -133
30 0 49 15 167 133 118 118 133 137 133 167 0 30 -15 49 -133 167 -177 176
-159 176 -334 -1z"/>
<path d="M6873 5926 c-175 -176 -175 -157 0 -333 118 -118 137 -133 167 -133
30 0 49 15 167 133 118 118 133 137 133 167 0 30 -15 49 -133 167 -177 176
-159 176 -334 -1z"/>
<path d="M8153 5926 c-175 -176 -175 -157 0 -333 118 -118 137 -133 167 -133
30 0 49 15 167 133 118 118 133 137 133 167 0 30 -15 49 -133 167 -177 176
-159 176 -334 -1z"/>
<path d="M9433 5926 c-175 -176 -175 -157 0 -333 118 -118 137 -133 167 -133
30 0 49 15 167 133 118 118 133 137 133 167 0 30 -15 49 -133 167 -177 176
-159 176 -334 -1z"/>
<path d="M10713 5926 c-175 -176 -175 -157 0 -333 118 -118 137 -133 167 -133
30 0 49 15 167 133 118 118 133 137 133 167 0 30 -15 49 -133 167 -177 176
-159 176 -334 -1z"/>
<path d="M11993 5926 c-175 -176 -175 -157 0 -333 118 -118 137 -133 167 -133
30 0 49 15 167 133 118 118 133 137 133 167 0 30 -15 49 -133 167 -177 176
-159 176 -334 -1z"/>
<path d="M0 5120 l0 -361 23 6 c12 4 92 76 177 161 207 206 207 182 0 388 -85
85 -165 157 -177 161 l-23 6 0 -361z"/>
<path d="M1245 5471 c-11 -5 -87 -77 -170 -160 -202 -203 -202 -179 8 -388
150 -151 158 -158 197 -158 39 0 47 7 197 158 211 210 210 184 3 392 -159 159
-187 177 -235 156z"/>
<path d="M2525 5471 c-11 -5 -87 -77 -170 -160 -202 -203 -202 -179 8 -388
150 -151 158 -158 197 -158 39 0 47 7 197 158 211 210 210 184 3 392 -159 159
-187 177 -235 156z"/>
<path d="M3805 5471 c-11 -5 -87 -77 -170 -160 -202 -203 -202 -179 8 -388
150 -151 158 -158 197 -158 39 0 47 7 197 158 211 210 210 184 3 392 -159 159
-187 177 -235 156z"/>
<path d="M5085 5471 c-11 -5 -87 -77 -170 -160 -202 -203 -202 -179 8 -388
150 -151 158 -158 197 -158 39 0 47 7 197 158 211 210 210 184 3 392 -159 159
-187 177 -235 156z"/>
<path d="M6365 5471 c-11 -5 -87 -77 -170 -160 -202 -203 -202 -179 8 -388
150 -151 158 -158 197 -158 39 0 47 7 197 158 211 210 210 184 3 392 -159 159
-187 177 -235 156z"/>
<path d="M7645 5471 c-11 -5 -87 -77 -170 -160 -202 -203 -202 -179 8 -388
150 -151 158 -158 197 -158 39 0 47 7 197 158 211 210 210 184 3 392 -159 159
-187 177 -235 156z"/>
<path d="M8925 5471 c-11 -5 -87 -77 -170 -160 -202 -203 -202 -179 8 -388
150 -151 158 -158 197 -158 39 0 47 7 197 158 211 210 210 184 3 392 -159 159
-187 177 -235 156z"/>
<path d="M10205 5471 c-11 -5 -87 -77 -170 -160 -202 -203 -202 -179 8 -388
150 -151 158 -158 197 -158 39 0 47 7 197 158 211 210 210 184 3 392 -159 159
-187 177 -235 156z"/>
<path d="M11485 5471 c-11 -5 -87 -77 -170 -160 -202 -203 -202 -179 8 -388
150 -151 158 -158 197 -158 39 0 47 7 197 158 211 210 210 184 3 392 -159 159
-187 177 -235 156z"/>
<path d="M12765 5470 c-11 -4 -87 -76 -170 -159 -201 -203 -202 -180 5 -385
85 -85 165 -157 178 -161 l22 -6 0 360 c0 199 -3 361 -7 360 -5 0 -17 -4 -28
-9z"/>
<path d="M453 4667 c-138 -138 -153 -156 -153 -187 0 -31 15 -49 153 -187 138
-138 156 -153 187 -153 31 0 49 15 187 153 138 138 153 156 153 187 0 31 -15
49 -153 187 -138 138 -156 153 -187 153 -31 0 -49 -15 -187 -153z"/>
<path d="M1733 4667 c-138 -138 -153 -156 -153 -187 0 -31 15 -49 153 -187
138 -138 156 -153 187 -153 31 0 49 15 187 153 138 138 153 156 153 187 0 31
-15 49 -153 187 -138 138 -156 153 -187 153 -31 0 -49 -15 -187 -153z"/>
<path d="M3013 4667 c-138 -138 -153 -156 -153 -187 0 -31 15 -49 153 -187
138 -138 156 -153 187 -153 31 0 49 15 187 153 138 138 153 156 153 187 0 31
-15 49 -153 187 -138 138 -156 153 -187 153 -31 0 -49 -15 -187 -153z"/>
<path d="M4293 4667 c-138 -138 -153 -156 -153 -187 0 -31 15 -49 153 -187
138 -138 156 -153 187 -153 31 0 49 15 187 153 138 138 153 156 153 187 0 31
-15 49 -153 187 -138 138 -156 153 -187 153 -31 0 -49 -15 -187 -153z"/>
<path d="M5573 4667 c-138 -138 -153 -156 -153 -187 0 -31 15 -49 153 -187
138 -138 156 -153 187 -153 31 0 49 15 187 153 138 138 153 156 153 187 0 31
-15 49 -153 187 -138 138 -156 153 -187 153 -31 0 -49 -15 -187 -153z"/>
<path d="M6853 4667 c-138 -138 -153 -156 -153 -187 0 -31 15 -49 153 -187
138 -138 156 -153 187 -153 31 0 49 15 187 153 138 138 153 156 153 187 0 31
-15 49 -153 187 -138 138 -156 153 -187 153 -31 0 -49 -15 -187 -153z"/>
<path d="M8133 4667 c-138 -138 -153 -156 -153 -187 0 -31 15 -49 153 -187
138 -138 156 -153 187 -153 31 0 49 15 187 153 138 138 153 156 153 187 0 31
-15 49 -153 187 -138 138 -156 153 -187 153 -31 0 -49 -15 -187 -153z"/>
<path d="M9413 4667 c-138 -138 -153 -156 -153 -187 0 -31 15 -49 153 -187
138 -138 156 -153 187 -153 31 0 49 15 187 153 138 138 153 156 153 187 0 31
-15 49 -153 187 -138 138 -156 153 -187 153 -31 0 -49 -15 -187 -153z"/>
<path d="M10693 4667 c-138 -138 -153 -156 -153 -187 0 -31 15 -49 153 -187
138 -138 156 -153 187 -153 31 0 49 15 187 153 138 138 153 156 153 187 0 31
-15 49 -153 187 -138 138 -156 153 -187 153 -31 0 -49 -15 -187 -153z"/>
<path d="M11973 4667 c-138 -138 -153 -156 -153 -187 0 -31 15 -49 153 -187
138 -138 156 -153 187 -153 31 0 49 15 187 153 138 138 153 156 153 187 0 31
-15 49 -153 187 -138 138 -156 153 -187 153 -31 0 -49 -15 -187 -153z"/>
<path d="M0 3840 l0 -400 22 0 c16 0 77 54 200 178 177 177 178 178 178 222 0
44 -1 45 -178 222 -123 124 -184 178 -200 178 l-22 0 0 -400z"/>
<path d="M1058 4062 c-177 -177 -178 -178 -178 -222 0 -44 1 -45 178 -222 177
-177 178 -178 222 -178 44 0 45 1 222 178 177 177 178 178 178 222 0 44 -1 45
-178 222 -177 177 -178 178 -222 178 -44 0 -45 -1 -222 -178z"/>
<path d="M2338 4062 c-177 -177 -178 -178 -178 -222 0 -44 1 -45 178 -222 177
-177 178 -178 222 -178 44 0 45 1 222 178 177 177 178 178 178 222 0 44 -1 45
-178 222 -177 177 -178 178 -222 178 -44 0 -45 -1 -222 -178z"/>
<path d="M3618 4062 c-177 -177 -178 -178 -178 -222 0 -44 1 -45 178 -222 177
-177 178 -178 222 -178 44 0 45 1 222 178 177 177 178 178 178 222 0 44 -1 45
-178 222 -177 177 -178 178 -222 178 -44 0 -45 -1 -222 -178z"/>
<path d="M4898 4062 c-177 -177 -178 -178 -178 -222 0 -44 1 -45 178 -222 177
-177 178 -178 222 -178 44 0 45 1 222 178 177 177 178 178 178 222 0 44 -1 45
-178 222 -177 177 -178 178 -222 178 -44 0 -45 -1 -222 -178z"/>
<path d="M6178 4062 c-177 -177 -178 -178 -178 -222 0 -44 1 -45 178 -222 177
-177 178 -178 222 -178 44 0 45 1 222 178 177 177 178 178 178 222 0 44 -1 45
-178 222 -177 177 -178 178 -222 178 -44 0 -45 -1 -222 -178z"/>
<path d="M7458 4062 c-177 -177 -178 -178 -178 -222 0 -44 1 -45 178 -222 177
-177 178 -178 222 -178 44 0 45 1 222 178 177 177 178 178 178 222 0 44 -1 45
-178 222 -177 177 -178 178 -222 178 -44 0 -45 -1 -222 -178z"/>
<path d="M8738 4062 c-177 -177 -178 -178 -178 -222 0 -44 1 -45 178 -222 177
-177 178 -178 222 -178 44 0 45 1 222 178 177 177 178 178 178 222 0 44 -1 45
-178 222 -177 177 -178 178 -222 178 -44 0 -45 -1 -222 -178z"/>
<path d="M10018 4062 c-177 -177 -178 -178 -178 -222 0 -44 1 -45 178 -222
177 -177 178 -178 222 -178 44 0 45 1 222 178 177 177 178 178 178 222 0 44
-1 45 -178 222 -177 177 -178 178 -222 178 -44 0 -45 -1 -222 -178z"/>
<path d="M11298 4062 c-177 -177 -178 -178 -178 -222 0 -44 1 -45 178 -222
177 -177 178 -178 222 -178 44 0 45 1 222 178 177 177 178 178 178 222 0 44
-1 45 -178 222 -177 177 -178 178 -222 178 -44 0 -45 -1 -222 -178z"/>
<path d="M12578 4062 c-177 -177 -178 -178 -178 -222 0 -44 1 -45 178 -222
123 -124 184 -178 200 -178 l22 0 0 400 0 400 -22 0 c-16 0 -77 -54 -200 -178z"/>
<path d="M428 3412 c-227 -226 -227 -198 0 -424 166 -167 168 -168 212 -168
44 0 46 1 212 168 167 166 168 168 168 212 0 44 -1 46 -168 212 -166 167 -168
168 -212 168 -44 0 -46 -1 -212 -168z"/>
<path d="M1708 3412 c-167 -166 -168 -168 -168 -212 0 -44 1 -46 168 -212 166
-167 168 -168 212 -168 44 0 46 1 212 168 167 166 168 168 168 212 0 44 -1 46
-168 212 -166 167 -168 168 -212 168 -44 0 -46 -1 -212 -168z"/>
<path d="M2988 3412 c-167 -166 -168 -168 -168 -212 0 -44 1 -46 168 -212 166
-167 168 -168 212 -168 44 0 46 1 212 168 167 166 168 168 168 212 0 44 -1 46
-168 212 -166 167 -168 168 -212 168 -44 0 -46 -1 -212 -168z"/>
<path d="M4268 3412 c-167 -166 -168 -168 -168 -212 0 -44 1 -46 168 -212 166
-167 168 -168 212 -168 44 0 46 1 212 168 167 166 168 168 168 212 0 44 -1 46
-168 212 -166 167 -168 168 -212 168 -44 0 -46 -1 -212 -168z"/>
<path d="M5548 3412 c-167 -166 -168 -168 -168 -212 0 -44 1 -46 168 -212 166
-167 168 -168 212 -168 44 0 46 1 212 168 167 166 168 168 168 212 0 44 -1 46
-168 212 -166 167 -168 168 -212 168 -44 0 -46 -1 -212 -168z"/>
<path d="M6828 3412 c-167 -166 -168 -168 -168 -212 0 -44 1 -46 168 -212 166
-167 168 -168 212 -168 44 0 46 1 212 168 167 166 168 168 168 212 0 44 -1 46
-168 212 -166 167 -168 168 -212 168 -44 0 -46 -1 -212 -168z"/>
<path d="M8108 3412 c-167 -166 -168 -168 -168 -212 0 -44 1 -46 168 -212 166
-167 168 -168 212 -168 44 0 46 1 212 168 167 166 168 168 168 212 0 44 -1 46
-168 212 -166 167 -168 168 -212 168 -44 0 -46 -1 -212 -168z"/>
<path d="M9388 3412 c-167 -166 -168 -168 -168 -212 0 -44 1 -46 168 -212 166
-167 168 -168 212 -168 44 0 46 1 212 168 167 166 168 168 168 212 0 44 -1 46
-168 212 -166 167 -168 168 -212 168 -44 0 -46 -1 -212 -168z"/>
<path d="M10668 3412 c-167 -166 -168 -168 -168 -212 0 -44 1 -46 168 -212
166 -167 168 -168 212 -168 44 0 46 1 212 168 167 166 168 168 168 212 0 44
-1 46 -168 212 -166 167 -168 168 -212 168 -44 0 -46 -1 -212 -168z"/>
<path d="M11948 3412 c-167 -166 -168 -168 -168 -212 0 -44 1 -46 168 -212
166 -167 168 -168 212 -168 44 0 46 1 212 168 167 166 168 168 168 212 0 44
-1 46 -168 212 -166 167 -168 168 -212 168 -44 0 -46 -1 -212 -168z"/>
<path d="M0 2561 c0 -308 3 -451 10 -451 29 0 80 44 250 214 l185 186 0 50 0
50 -195 194 c-124 124 -205 197 -222 202 l-28 6 0 -451z"/>
<path d="M1235 3001 c-11 -5 -105 -95 -210 -200 l-190 -191 0 -50 0 -50 195
-194 c198 -198 222 -215 278 -201 17 4 99 78 222 201 l195 194 0 50 0 50 -196
196 c-178 178 -199 196 -235 200 -21 2 -48 0 -59 -5z"/>
<path d="M2515 3001 c-11 -5 -105 -95 -210 -200 l-190 -191 0 -50 0 -50 195
-194 c198 -198 222 -215 278 -201 17 4 99 78 222 201 l195 194 0 50 0 50 -196
196 c-178 178 -199 196 -235 200 -21 2 -48 0 -59 -5z"/>
<path d="M3795 3001 c-11 -5 -105 -95 -210 -200 l-190 -191 0 -50 0 -50 195
-194 c198 -198 222 -215 278 -201 17 4 99 78 222 201 l195 194 0 50 0 50 -196
196 c-178 178 -199 196 -235 200 -21 2 -48 0 -59 -5z"/>
<path d="M5075 3001 c-11 -5 -105 -95 -210 -200 l-190 -191 0 -50 0 -50 195
-194 c123 -123 205 -197 223 -201 55 -14 79 3 277 201 l195 194 0 50 0 50
-196 196 c-178 178 -199 196 -235 200 -21 2 -48 0 -59 -5z"/>
<path d="M6355 3001 c-11 -5 -105 -95 -210 -200 l-190 -191 0 -50 0 -50 195
-194 c198 -198 222 -215 278 -201 17 4 99 78 222 201 l195 194 0 50 0 50 -196
196 c-178 178 -199 196 -235 200 -21 2 -48 0 -59 -5z"/>
<path d="M7635 3001 c-11 -5 -105 -95 -210 -200 l-190 -191 0 -50 0 -50 195
-194 c198 -198 222 -215 278 -201 17 4 99 78 222 201 l195 194 0 50 0 50 -196
196 c-178 178 -199 196 -235 200 -21 2 -48 0 -59 -5z"/>
<path d="M8915 3001 c-11 -5 -105 -95 -210 -200 l-190 -191 0 -50 0 -50 195
-194 c198 -198 222 -215 278 -201 17 4 99 78 222 201 l195 194 0 50 0 50 -196
196 c-178 178 -199 196 -235 200 -21 2 -48 0 -59 -5z"/>
<path d="M10195 3001 c-11 -5 -105 -95 -210 -200 l-190 -191 0 -50 0 -50 195
-194 c198 -198 222 -215 278 -201 17 4 99 78 222 201 l195 194 0 50 0 50 -196
196 c-178 178 -199 196 -235 200 -21 2 -48 0 -59 -5z"/>
<path d="M11475 3001 c-11 -5 -105 -95 -210 -200 l-190 -191 0 -50 0 -50 195
-194 c198 -198 222 -215 278 -201 17 4 99 78 222 201 l195 194 0 50 0 50 -196
196 c-178 178 -199 196 -235 200 -21 2 -48 0 -59 -5z"/>
<path d="M12755 3000 c-11 -4 -105 -94 -210 -199 l-190 -191 0 -50 0 -50 185
-186 c170 -170 221 -214 250 -214 7 0 10 142 10 450 0 476 2 460 -45 440z"/>
<path d="M594 2330 c-54 -27 -349 -324 -369 -373 -14 -33 -14 -41 0 -74 21
-51 316 -347 372 -374 l43 -21 43 21 c56 27 351 323 372 374 24 59 4 91 -168
265 -198 200 -224 216 -293 182z"/>
<path d="M1874 2330 c-54 -27 -349 -324 -369 -373 -14 -33 -14 -41 0 -74 21
-51 316 -347 372 -374 l43 -21 43 21 c56 27 351 323 372 374 24 59 4 91 -168
265 -198 200 -224 216 -293 182z"/>
<path d="M3154 2330 c-54 -27 -349 -324 -369 -373 -14 -33 -14 -41 0 -74 21
-51 316 -347 372 -374 l43 -21 43 21 c56 27 351 323 372 374 24 59 4 91 -168
265 -198 200 -224 216 -293 182z"/>
<path d="M4434 2330 c-54 -27 -349 -324 -369 -373 -14 -33 -14 -41 0 -74 21
-51 316 -347 372 -374 l43 -21 43 21 c56 27 351 323 372 374 24 59 4 91 -168
265 -198 200 -224 216 -293 182z"/>
<path d="M5714 2330 c-54 -27 -349 -324 -369 -373 -14 -33 -14 -41 0 -74 21
-51 316 -347 372 -374 l43 -21 43 21 c56 27 351 323 372 374 24 59 4 91 -168
265 -198 200 -224 216 -293 182z"/>
<path d="M6994 2330 c-54 -27 -349 -324 -369 -373 -14 -33 -14 -41 0 -74 21
-51 316 -347 372 -374 l43 -21 43 21 c56 27 351 323 372 374 24 59 4 91 -168
265 -198 200 -224 216 -293 182z"/>
<path d="M8274 2330 c-54 -27 -349 -324 -369 -373 -14 -33 -14 -41 0 -74 21
-51 316 -347 372 -374 l43 -21 43 21 c56 27 351 323 372 374 24 59 4 91 -168
265 -198 200 -224 216 -293 182z"/>
<path d="M9554 2330 c-54 -27 -349 -324 -369 -373 -14 -33 -14 -41 0 -74 21
-51 316 -347 372 -374 l43 -21 43 21 c56 27 351 323 372 374 24 59 4 91 -168
265 -198 200 -224 216 -293 182z"/>
<path d="M10834 2330 c-54 -27 -349 -324 -369 -373 -14 -33 -14 -41 0 -74 21
-51 316 -347 372 -374 l43 -21 43 21 c56 27 351 323 372 374 24 59 4 91 -168
265 -198 200 -224 216 -293 182z"/>
<path d="M12114 2330 c-54 -27 -349 -324 -369 -373 -14 -33 -14 -41 0 -74 21
-51 316 -347 372 -374 l43 -21 43 21 c56 27 351 323 372 374 24 59 4 91 -168
265 -198 200 -224 216 -293 182z"/>
<path d="M0 1281 c0 -276 2 -501 5 -501 31 0 101 58 271 227 220 218 236 241
213 311 -9 27 -62 88 -192 219 -175 178 -229 224 -274 238 l-23 6 0 -500z"/>
<path d="M1230 1765 c-54 -24 -424 -401 -439 -447 -23 -71 -8 -94 216 -315
218 -216 244 -234 306 -214 50 17 440 405 456 454 23 68 5 94 -192 294 -99
100 -196 193 -216 207 -48 33 -88 40 -131 21z"/>
<path d="M2510 1765 c-54 -24 -424 -401 -439 -447 -23 -71 -8 -94 216 -315
218 -216 244 -234 306 -214 50 17 440 405 456 454 23 68 5 94 -192 294 -99
100 -196 193 -216 207 -48 33 -88 40 -131 21z"/>
<path d="M3790 1765 c-54 -24 -424 -401 -439 -447 -23 -71 -8 -94 216 -315
218 -216 244 -234 306 -214 50 17 440 405 456 454 23 68 5 94 -192 294 -99
100 -196 193 -216 207 -48 33 -88 40 -131 21z"/>
<path d="M5070 1765 c-54 -24 -424 -401 -439 -447 -23 -71 -8 -94 216 -315
218 -216 244 -234 306 -214 50 17 440 405 456 454 23 68 5 94 -192 294 -99
100 -196 193 -216 207 -48 33 -88 40 -131 21z"/>
<path d="M6350 1765 c-54 -24 -424 -401 -439 -447 -23 -71 -8 -94 216 -315
218 -216 244 -234 306 -214 50 17 440 405 456 454 23 68 5 94 -192 294 -99
100 -196 193 -216 207 -48 33 -88 40 -131 21z"/>
<path d="M7630 1765 c-54 -24 -424 -401 -439 -447 -23 -71 -8 -94 216 -315
218 -216 244 -234 306 -214 50 17 440 405 456 454 23 68 5 94 -192 294 -99
100 -196 193 -216 207 -48 33 -88 40 -131 21z"/>
<path d="M8910 1765 c-54 -24 -424 -401 -439 -447 -23 -71 -8 -94 216 -315
218 -216 244 -234 306 -214 50 17 440 405 456 454 23 68 5 94 -192 294 -99
100 -196 193 -216 207 -48 33 -88 40 -131 21z"/>
<path d="M10190 1765 c-54 -24 -424 -401 -439 -447 -23 -71 -8 -94 216 -315
218 -216 244 -234 306 -214 50 17 440 405 456 454 23 68 5 94 -192 294 -99
100 -196 193 -216 207 -48 33 -88 40 -131 21z"/>
<path d="M11470 1765 c-54 -24 -424 -401 -439 -447 -23 -71 -8 -94 216 -315
218 -216 244 -234 306 -214 50 17 440 405 456 454 23 68 5 94 -192 294 -99
100 -196 193 -216 207 -48 33 -88 40 -131 21z"/>
<path d="M12750 1764 c-54 -23 -424 -400 -439 -446 -23 -71 -8 -94 213 -312
170 -168 239 -226 271 -226 3 0 5 225 5 500 0 275 -3 500 -7 500 -5 -1 -24 -8
-43 -16z"/>
<path d="M600 1099 c-14 -5 -112 -96 -218 -202 -204 -204 -222 -230 -203 -290
14 -40 383 -411 425 -427 60 -22 81 -8 288 198 210 209 229 234 209 295 -13
39 -382 411 -424 427 -34 12 -44 12 -77 -1z"/>
<path d="M1880 1099 c-14 -5 -112 -96 -218 -202 -204 -204 -222 -230 -203
-290 14 -40 383 -411 425 -427 60 -22 81 -8 288 198 210 209 229 234 209 295
-13 39 -382 411 -424 427 -34 12 -44 12 -77 -1z"/>
<path d="M3160 1099 c-14 -5 -112 -96 -218 -202 -204 -204 -222 -230 -203
-290 14 -40 383 -411 425 -427 60 -22 81 -8 288 198 210 209 229 234 209 295
-13 39 -382 411 -424 427 -34 12 -44 12 -77 -1z"/>
<path d="M4440 1099 c-14 -5 -112 -96 -218 -202 -204 -204 -222 -230 -203
-290 14 -40 383 -411 425 -427 60 -22 81 -8 288 198 210 209 229 234 209 295
-13 39 -382 411 -424 427 -34 12 -44 12 -77 -1z"/>
<path d="M5720 1099 c-14 -5 -112 -96 -218 -202 -204 -204 -222 -230 -203
-290 14 -40 383 -411 425 -427 60 -22 81 -8 288 198 210 209 229 234 209 295
-13 39 -382 411 -424 427 -34 12 -44 12 -77 -1z"/>
<path d="M7000 1099 c-14 -5 -112 -96 -218 -202 -204 -204 -222 -230 -203
-290 14 -40 383 -411 425 -427 60 -22 81 -8 288 198 210 209 229 234 209 295
-13 39 -382 411 -424 427 -34 12 -44 12 -77 -1z"/>
<path d="M8280 1099 c-14 -5 -112 -96 -218 -202 -204 -204 -222 -230 -203
-290 14 -40 383 -411 425 -427 60 -22 81 -8 288 198 210 209 229 234 209 295
-13 39 -382 411 -424 427 -34 12 -44 12 -77 -1z"/>
<path d="M9560 1099 c-14 -5 -112 -96 -218 -202 -204 -204 -222 -230 -203
-290 14 -40 383 -411 425 -427 60 -22 81 -8 288 198 210 209 229 234 209 295
-13 39 -382 411 -424 427 -34 12 -44 12 -77 -1z"/>
<path d="M10840 1099 c-14 -5 -112 -96 -218 -202 -204 -204 -222 -230 -203
-290 14 -40 383 -411 425 -427 60 -22 81 -8 288 198 210 209 229 234 209 295
-13 39 -382 411 -424 427 -34 12 -44 12 -77 -1z"/>
<path d="M12120 1099 c-14 -5 -112 -96 -218 -202 -204 -204 -222 -230 -203
-290 14 -40 383 -411 425 -427 60 -22 81 -8 288 198 210 209 229 234 209 295
-13 39 -382 411 -424 427 -34 12 -44 12 -77 -1z"/>
<path d="M0 271 l0 -271 270 0 c294 0 282 -3 260 56 -11 27 -360 388 -432 445
-20 16 -50 32 -67 35 l-31 7 0 -272z"/>
<path d="M1221 529 c-25 -10 -390 -365 -442 -431 -16 -20 -32 -50 -35 -67 l-6
-31 542 0 543 0 -7 31 c-3 17 -19 47 -35 67 -57 72 -418 421 -445 432 -33 12
-83 12 -115 -1z"/>
<path d="M2501 529 c-25 -10 -390 -365 -442 -431 -16 -20 -32 -50 -35 -67 l-6
-31 542 0 543 0 -7 31 c-3 17 -19 47 -35 67 -57 72 -418 421 -445 432 -33 12
-83 12 -115 -1z"/>
<path d="M3781 529 c-25 -10 -390 -365 -442 -431 -16 -20 -32 -50 -35 -67 l-6
-31 542 0 543 0 -7 31 c-3 17 -19 47 -35 67 -57 72 -418 421 -445 432 -33 12
-83 12 -115 -1z"/>
<path d="M5061 529 c-25 -10 -390 -365 -442 -431 -16 -20 -32 -50 -35 -67 l-6
-31 542 0 543 0 -7 31 c-3 17 -19 47 -35 67 -57 72 -418 421 -445 432 -33 12
-83 12 -115 -1z"/>
<path d="M6341 529 c-25 -10 -390 -365 -442 -431 -16 -20 -32 -50 -35 -67 l-6
-31 542 0 543 0 -7 31 c-3 17 -19 47 -35 67 -57 72 -418 421 -445 432 -33 12
-83 12 -115 -1z"/>
<path d="M7621 529 c-25 -10 -390 -365 -442 -431 -16 -20 -32 -50 -35 -67 l-6
-31 542 0 543 0 -7 31 c-3 17 -19 47 -35 67 -57 72 -418 421 -445 432 -33 12
-83 12 -115 -1z"/>
<path d="M8901 529 c-25 -10 -390 -365 -442 -431 -16 -20 -32 -50 -35 -67 l-6
-31 542 0 543 0 -7 31 c-3 17 -19 47 -35 67 -57 72 -418 421 -445 432 -33 12
-83 12 -115 -1z"/>
<path d="M10181 529 c-25 -10 -390 -365 -442 -431 -16 -20 -32 -50 -35 -67
l-6 -31 542 0 543 0 -7 31 c-3 17 -19 47 -35 67 -57 72 -418 421 -445 432 -33
12 -83 12 -115 -1z"/>
<path d="M11461 529 c-25 -10 -390 -365 -442 -431 -16 -20 -32 -50 -35 -67
l-6 -31 542 0 543 0 -7 31 c-3 17 -19 47 -35 67 -57 72 -418 421 -445 432 -33
12 -83 12 -115 -1z"/>
<path d="M12741 529 c-25 -10 -390 -365 -442 -431 -16 -20 -32 -50 -35 -67
l-6 -31 271 0 271 0 0 270 c0 297 3 284 -59 259z"/>
</g>
</svg>
